<?xml version="1.0" ?><svg data-name="Layer 1" id="Layer_1" viewBox="0 0 48 48" xmlns="http://www.w3.org/2000/svg"><defs><style>.cls-1{fill:#42c3cf;}</style></defs><title/><path class="cls-1" d="M24,10A20,20,0,0,0,5.42,37.37l.25.63H42.33l.25-.63A20,20,0,0,0,24,10ZM34,24.63l-6.36,7.94A5,5,0,0,1,29,36H27a3,3,0,0,0-6,0H19a5,5,0,0,1,7-4.58s0,0,0,0l6.4-8A1,1,0,1,1,34,24.63ZM39,31a1,1,0,0,1-1-1,14,14,0,0,0-26.83-5.6A13.78,13.78,0,0,0,10,30a1,1,0,0,1-2,0,15.8,15.8,0,0,1,1.34-6.4A16,16,0,0,1,40,30,1,1,0,0,1,39,31Z"/></svg>